<svg xmlns="http://www.w3.org/2000/svg" width="181.06" height="26" viewBox="0 0 181.06 26"><g transform="translate(-0.5 -0.5)"><path d="M60.18,18.39a8.24,8.24,0,0,1-3,2.63A9,9,0,0,1,53,22a9.36,9.36,0,0,1-4.8-1.2A8.11,8.11,0,0,1,45,17.36,11.7,11.7,0,0,1,43.8,12,11.76,11.76,0,0,1,45,6.56a8.23,8.23,0,0,1,3.2-3.44A9.35,9.35,0,0,1,53,1.94a9.19,9.19,0,0,1,4,.87,8.44,8.44,0,0,1,3,2.33,7.91,7.91,0,0,1,1.53,3.17L56.65,9a4.5,4.5,0,0,0-1.37-2.16A3.42,3.42,0,0,0,53,6a3.71,3.71,0,0,0-3,1.45A7.06,7.06,0,0,0,48.76,12,7,7,0,0,0,50,16.5,3.72,3.72,0,0,0,53,18a3.35,3.35,0,0,0,2.51-1,5,5,0,0,0,1.29-2.76l4.91.46A9.13,9.13,0,0,1,60.18,18.39Z" fill="#33058d"/><path d="M67.71,9.52h.11A4.26,4.26,0,0,1,72,6.94a2.12,2.12,0,0,1,.69.11v4.4a9,9,0,0,0-1.5-.11,3.45,3.45,0,0,0-2.39.77,3.43,3.43,0,0,0-.86,2.65v6.8h-4.6V7.29h4.37Z" fill="#33058d"/><path d="M78.34,2.1V5.57H73.79V2.1Zm0,5.19V21.56H73.79V7.29Z" fill="#33058d"/><path d="M85.21,19.84h-.1V26.5H80.56V7.29h4.37V9.2H85a4.28,4.28,0,0,1,4.12-2.26,5.1,5.1,0,0,1,3,.9,6.07,6.07,0,0,1,2.06,2.59,9.78,9.78,0,0,1,.75,4,10,10,0,0,1-.74,4,6.09,6.09,0,0,1-2,2.6,4.87,4.87,0,0,1-2.88.92A4.39,4.39,0,0,1,85.21,19.84Zm.39-8.39a5,5,0,0,0-.72,3,4.92,4.92,0,0,0,.73,3,2.31,2.31,0,0,0,2,1,2.35,2.35,0,0,0,2-1,5,5,0,0,0,.72-3,5,5,0,0,0-.72-3,2.53,2.53,0,0,0-4,0Z" fill="#33058d"/><path d="M104.55,18.09v3.47a8.53,8.53,0,0,1-1.24.24,11.721,11.721,0,0,1-1.57.11,7.93,7.93,0,0,1-2.55-.34,2.45,2.45,0,0,1-1.4-1.18A5.4,5.4,0,0,1,97.35,18V10.27H95.28v-3h2.07V3.36h4.54V7.29h2.71v3h-2.71v6.56a1.44,1.44,0,0,0,.32,1.1,1.72,1.72,0,0,0,1.09.27A6.3,6.3,0,0,0,104.55,18.09Z" fill="#33058d"/><path d="M117.7,8.93a7.58,7.58,0,0,1,1.92,5.5,7.59,7.59,0,0,1-1.92,5.49,8.21,8.21,0,0,1-10.72,0,7.59,7.59,0,0,1-1.92-5.49A7.58,7.58,0,0,1,107,8.93a8.21,8.21,0,0,1,10.72,0Zm-2.7,5.5q0-4-2.64-4t-2.65,4q0,4,2.65,4T115,14.43Z" fill="#33058d"/><path d="M132.77,7.85a6.07,6.07,0,0,1,2,2.61,9.9,9.9,0,0,1,.74,4,9.75,9.75,0,0,1-.75,4A6.07,6.07,0,0,1,132.73,21a5.11,5.11,0,0,1-3,.91,4.29,4.29,0,0,1-4.12-2.26h-.1v1.91h-4.37V2.1h4.55V9h.1a4.42,4.42,0,0,1,4.06-2.07,4.86,4.86,0,0,1,2.92.92Zm-2.57,9.57a5,5,0,0,0,.72-3,5,5,0,0,0-.72-3,2.53,2.53,0,0,0-4,0,5,5,0,0,0-.72,3,4.92,4.92,0,0,0,.73,3,2.31,2.31,0,0,0,2,1,2.35,2.35,0,0,0,1.99-1Z" fill="#33058d"/><path d="M150.36,18.22v3.34a6.58,6.58,0,0,1-1.89.24,5.11,5.11,0,0,1-2.19-.39,2.46,2.46,0,0,1-1.18-1.22H145a4.16,4.16,0,0,1-1.67,1.26,6,6,0,0,1-2.34.46,5.71,5.71,0,0,1-2.39-.5A4.07,4.07,0,0,1,136.87,20a3.94,3.94,0,0,1-.64-2.25,3.92,3.92,0,0,1,1.29-3.23,8.13,8.13,0,0,1,4-1.47,16.38,16.38,0,0,0,2.06-.42,2.42,2.42,0,0,0,1-.45.88.88,0,0,0,.28-.69,1.22,1.22,0,0,0-.46-1,2.22,2.22,0,0,0-2.59.12,2.76,2.76,0,0,0-.8,1.37l-4.22-.46a5.07,5.07,0,0,1,2.12-3.32,7.41,7.41,0,0,1,4.32-1.19,7.18,7.18,0,0,1,4.61,1.27,4.41,4.41,0,0,1,1.57,3.62v5.64a1.12,1.12,0,0,0,.13.67.5.5,0,0,0,.43.16.89.89,0,0,0,.39-.15ZM144,15.16c-.33.09-.77.19-1.34.3-1.22.26-1.84.89-1.84,1.88a1.6,1.6,0,0,0,.41,1.13,1.48,1.48,0,0,0,1.1.43,2.43,2.43,0,0,0,1.69-.72,2.72,2.72,0,0,0,.76-2.11V14.84A2.66,2.66,0,0,1,144,15.16Z" fill="#33058d"/><path d="M155.93,9.22a5,5,0,0,1,4.34-2.28,4.58,4.58,0,0,1,3.46,1.33,5.47,5.47,0,0,1,1.29,4V21.6h-4.55V13.33a3,3,0,0,0-.52-2,1.93,1.93,0,0,0-1.54-.6,2.18,2.18,0,0,0-1.72.79,3.49,3.49,0,0,0-.69,2.35v7.69h-4.54V7.29h4.37V9.22Z" fill="#33058d"/><path d="M171.66,21.56h-4.54V2.1h4.54V12.61L176,7.29h5l-4.83,5.51,5.39,8.76h-5.19L173.07,16l-1.41,1.64Z" fill="#33058d"/><path d="M37.52,12.85,32.4,21.59l-6.12,1.79L20.1,25.19l6.47-8.69,2.73-3.65L26.57,9.19,20.1.5l6.18,1.81L32.4,4.1Z" fill="#33058d"/><path d="M.5,12.84,5.62,4.1l6.12-1.79L17.92.5,11.44,9.19,8.72,12.84l2.72,3.66,6.48,8.69-6.19-1.81L5.62,21.59Z" fill="#33058d"/><path d="M23.44,12.85l-4.23,5.68-4.24-5.68L19.2,7.16Z" fill="#33058d"/></g></svg>