<svg xmlns="http://www.w3.org/2000/svg" viewBox="0 0 308 36.77"><defs><style>.cls-1{fill:#7703fc;}</style></defs><g id="Capa_2" data-name="Capa 2"><g id="Layer_1" data-name="Layer 1"><polygon class="cls-1" points="56.42 17.89 48.62 30.56 39.29 33.16 29.88 35.78 39.74 23.19 43.89 17.89 39.74 12.59 29.88 0 39.3 2.62 48.62 5.22 56.42 17.89"/><polygon class="cls-1" points="0 17.89 7.8 5.22 17.13 2.62 26.55 0 16.68 12.59 12.53 17.89 16.68 23.19 26.55 35.78 17.13 33.16 7.8 30.56 0 17.89"/><polygon class="cls-1" points="34.97 17.89 28.51 26.13 22.06 17.89 28.51 9.65 34.97 17.89"/><path class="cls-1" d="M75.62,23.26,73.75,29.1H66L75.85,1.3h10l9.89,27.8h-7.9l-1.87-5.84ZM80.8,7.37h-.16L77.26,18h7Z"/><path class="cls-1" d="M110.91,21.08l7,.66a10.46,10.46,0,0,1-3.41,5.65c-1.73,1.48-4.17,2.22-7.34,2.22q-5.14,0-8-2.89a10.72,10.72,0,0,1-2.88-7.94q0-5.1,2.88-8t8-2.88q4.71,0,7.22,2.12a9.83,9.83,0,0,1,3.29,5.08l-6.89,1.09c-.6-2.2-1.8-3.31-3.62-3.31q-3.85,0-3.85,5.88t3.85,5.88Q110.09,24.66,110.91,21.08Z"/><path class="cls-1" d="M132.75,24.08v5a13.55,13.55,0,0,1-1.89.35,19.06,19.06,0,0,1-2.39.16,12.62,12.62,0,0,1-3.89-.49,3.71,3.71,0,0,1-2.13-1.71,7.34,7.34,0,0,1-.68-3.49V12.75h-3.15V8.42h3.15V2.74h6.93V8.42h4.13v4.33H128.7v9.5a2,2,0,0,0,.49,1.59,2.68,2.68,0,0,0,1.65.39A10.26,10.26,0,0,0,132.75,24.08Z"/><path class="cls-1" d="M142,.91v5h-6.93v-5Zm0,7.51V29.1h-6.89V8.42Z"/><path class="cls-1" d="M150.93,29.1,143.58,8.42H151l4.09,13.24h.16l4-13.24h7.36L159.23,29.1Z"/><path class="cls-1" d="M185.72,10.8q2.94,2.88,2.94,8a10.59,10.59,0,0,1-2.94,7.94q-2.94,2.89-8.15,2.89c-3.51,0-6.23-1-8.18-2.89a10.62,10.62,0,0,1-2.92-7.94q0-5.1,2.92-8c2-1.92,4.67-2.88,8.18-2.88S183.76,8.88,185.72,10.8Zm-4.14,8q0-5.88-4-5.88t-4,5.88q0,5.84,4,5.84T181.58,18.78Z"/><path class="cls-1" d="M213.45,4.75q3.9,3.44,3.91,10.45t-3.91,10.45q-3.91,3.45-10.65,3.45H191.31V1.3H202.8Q209.53,1.3,213.45,4.75ZM207.74,21.6q2.07-1.84,2.07-6.4c0-3-.69-5.17-2.07-6.41s-3.42-1.85-6.15-1.85h-2.88V23.45h2.88C204.32,23.45,206.37,22.84,207.74,21.6Z"/><path class="cls-1" d="M226.86.91v5h-6.93v-5Zm0,7.51V29.1h-6.89V8.42Z"/><path class="cls-1" d="M250.88,27.43q0,5-2.94,7.16a13.1,13.1,0,0,1-8,2.18,13.58,13.58,0,0,1-7-1.69,8.27,8.27,0,0,1-3.77-5.28l6.93-.47a3.46,3.46,0,0,0,1.38,2,4.55,4.55,0,0,0,2.51.62q4,0,4-4.59v-2h-.15q-1.87,2.73-6.16,2.73a8,8,0,0,1-4.36-1.23,8.37,8.37,0,0,1-3.05-3.5A12.13,12.13,0,0,1,229.12,18a11.81,11.81,0,0,1,1.13-5.35,8.19,8.19,0,0,1,3.11-3.48,8.43,8.43,0,0,1,4.48-1.21c3,0,5,1,6.23,3.11h.15V8.42h6.66Zm-7.69-5.79A5.59,5.59,0,0,0,244.3,18a5.48,5.48,0,0,0-1.11-3.62A3.65,3.65,0,0,0,240.25,13a3.72,3.72,0,0,0-3,1.3A5.46,5.46,0,0,0,236.16,18a5.59,5.59,0,0,0,1.11,3.68,3.67,3.67,0,0,0,3,1.35A3.62,3.62,0,0,0,243.19,21.64Z"/><path class="cls-1" d="M260.85.91v5h-6.93v-5Zm0,7.51V29.1h-6.89V8.42Z"/><path class="cls-1" d="M276.7,24.08v5a13.84,13.84,0,0,1-1.89.35,19.09,19.09,0,0,1-2.4.16,12.67,12.67,0,0,1-3.89-.49,3.69,3.69,0,0,1-2.12-1.71,7.22,7.22,0,0,1-.68-3.49V12.75h-3.16V8.42h3.16V2.74h6.93V8.42h4.12v4.33h-4.12v9.5a2,2,0,0,0,.48,1.59,2.72,2.72,0,0,0,1.66.39A10.34,10.34,0,0,0,276.7,24.08Z"/><path class="cls-1" d="M299.4,24.27V29.1a10.63,10.63,0,0,1-2.89.35,8.14,8.14,0,0,1-3.32-.56,3.61,3.61,0,0,1-1.81-1.78h-.16a6.12,6.12,0,0,1-2.55,1.83,9.36,9.36,0,0,1-3.56.67,9,9,0,0,1-3.64-.72,6.12,6.12,0,0,1-2.63-2.11,5.48,5.48,0,0,1-1-3.25,5.6,5.6,0,0,1,2-4.69,12.79,12.79,0,0,1,6.06-2.12,28.46,28.46,0,0,0,3.13-.61,3.93,3.93,0,0,0,1.5-.66,1.26,1.26,0,0,0,.43-1,1.78,1.78,0,0,0-.7-1.5,3.14,3.14,0,0,0-1.91-.53,3.08,3.08,0,0,0-2,.71,4,4,0,0,0-1.22,2l-6.43-.66a7.36,7.36,0,0,1,3.23-4.81,11.71,11.71,0,0,1,6.58-1.73c3.09,0,5.44.62,7,1.85a6.22,6.22,0,0,1,2.4,5.23v8.18a1.64,1.64,0,0,0,.19,1,.81.81,0,0,0,.66.24A1.51,1.51,0,0,0,299.4,24.27Zm-9.64-4.44c-.51.13-1.19.28-2,.43-1.87.39-2.81,1.3-2.81,2.73a2.22,2.22,0,0,0,.62,1.63,2.26,2.26,0,0,0,1.68.62A3.77,3.77,0,0,0,291,21.16V19.37A4.28,4.28,0,0,1,289.76,19.83Z"/><path class="cls-1" d="M308,.91V29.1h-6.93V.91Z"/></g></g></svg>