<svg xmlns="http://www.w3.org/2000/svg" viewBox="0 0 171 20.41"><defs><style>.cls-1{fill:#283252;}</style></defs><g id="Capa_2" data-name="Capa 2"><g id="Layer_1" data-name="Layer 1"><polygon class="cls-1" points="31.33 9.93 26.99 16.97 21.82 18.41 16.59 19.86 22.06 12.87 24.37 9.93 22.06 6.99 16.59 0 21.82 1.46 26.99 2.9 31.33 9.93"/><polygon class="cls-1" points="0 9.93 4.33 2.9 9.51 1.46 14.74 0 9.26 6.99 6.96 9.93 9.26 12.87 14.74 19.86 9.51 18.41 4.33 16.96 0 9.93"/><polygon class="cls-1" points="19.41 9.93 15.83 14.51 12.24 9.93 15.83 5.36 19.41 9.93"/><path class="cls-1" d="M42,12.91l-1,3.25H36.64L42.11.72h5.54l5.49,15.44H48.75l-1-3.25Zm2.88-8.82h-.09L42.89,10h3.89Z"/><path class="cls-1" d="M61.58,11.7l3.91.37A5.74,5.74,0,0,1,63.6,15.2a6,6,0,0,1-4.08,1.24,6,6,0,0,1-4.45-1.6,6,6,0,0,1-1.6-4.41A6,6,0,0,1,55.07,6a6,6,0,0,1,4.45-1.6,6.07,6.07,0,0,1,4,1.17A5.49,5.49,0,0,1,65.36,8.4L61.53,9c-.33-1.22-1-1.84-2-1.84-1.42,0-2.14,1.09-2.14,3.27s.72,3.26,2.14,3.26C60.59,13.69,61.27,13,61.58,11.7Z"/><path class="cls-1" d="M73.7,13.37v2.79a8.93,8.93,0,0,1-1,.19,9.65,9.65,0,0,1-1.32.09,7,7,0,0,1-2.17-.27,2,2,0,0,1-1.17-1,4,4,0,0,1-.38-1.94V7.08H65.86V4.68h1.75V1.52h3.84V4.68h2.3v2.4h-2.3v5.27a1.09,1.09,0,0,0,.28.89,1.5,1.5,0,0,0,.91.21A6.28,6.28,0,0,0,73.7,13.37Z"/><path class="cls-1" d="M78.85.51V3.29H75V.51Zm0,4.17V16.16H75V4.68Z"/><path class="cls-1" d="M83.8,16.16,79.71,4.68h4.13L86.11,12h.09l2.2-7.35h4.09L88.4,16.16Z"/><path class="cls-1" d="M103.11,6a5.9,5.9,0,0,1,1.63,4.43,5.89,5.89,0,0,1-1.63,4.41,7.23,7.23,0,0,1-9.07,0,5.93,5.93,0,0,1-1.62-4.41A5.93,5.93,0,0,1,94,6a7.23,7.23,0,0,1,9.07,0Zm-2.3,4.43c0-2.18-.74-3.27-2.23-3.27s-2.24,1.09-2.24,3.27.75,3.24,2.24,3.24S100.81,12.59,100.81,10.43Z"/><path class="cls-1" d="M118.5,2.63c1.45,1.28,2.18,3.21,2.18,5.81S120,13,118.5,14.24a8.6,8.6,0,0,1-5.91,1.92h-6.38V.72h6.38A8.64,8.64,0,0,1,118.5,2.63ZM115.34,12a4.61,4.61,0,0,0,1.14-3.55,4.63,4.63,0,0,0-1.14-3.56,5,5,0,0,0-3.42-1h-1.6V13h1.6A5,5,0,0,0,115.34,12Z"/><path class="cls-1" d="M126,.51V3.29H122.1V.51Zm0,4.17V16.16H122.1V4.68Z"/><path class="cls-1" d="M139.29,15.23a4.63,4.63,0,0,1-1.63,4,7.26,7.26,0,0,1-4.42,1.21,7.54,7.54,0,0,1-3.92-.94,4.54,4.54,0,0,1-2.09-2.93l3.84-.25a2,2,0,0,0,.77,1.08,2.52,2.52,0,0,0,1.4.34c1.47,0,2.2-.85,2.2-2.55v-1.1h-.09a3.83,3.83,0,0,1-3.41,1.51,4.4,4.4,0,0,1-2.42-.68,4.61,4.61,0,0,1-1.7-1.94,6.78,6.78,0,0,1-.62-3,6.6,6.6,0,0,1,.63-3,4.59,4.59,0,0,1,1.73-1.93,4.67,4.67,0,0,1,2.49-.67,3.65,3.65,0,0,1,3.46,1.73h.08V4.68h3.7ZM135,12a3.13,3.13,0,0,0,.62-2A3,3,0,0,0,135,8a2,2,0,0,0-1.63-.73,2.08,2.08,0,0,0-1.66.72,3,3,0,0,0-.61,2,3.13,3.13,0,0,0,.61,2,2.07,2.07,0,0,0,1.66.74A2,2,0,0,0,135,12Z"/><path class="cls-1" d="M144.82.51V3.29H141V.51Zm0,4.17V16.16H141V4.68Z"/><path class="cls-1" d="M153.62,13.37v2.79a8.93,8.93,0,0,1-1.05.19,9.8,9.8,0,0,1-1.33.09,6.94,6.94,0,0,1-2.16-.27,2.05,2.05,0,0,1-1.18-1,4.09,4.09,0,0,1-.38-1.94V7.08h-1.75V4.68h1.75V1.52h3.85V4.68h2.29v2.4h-2.29v5.27a1.12,1.12,0,0,0,.27.89,1.54,1.54,0,0,0,.92.21A6.28,6.28,0,0,0,153.62,13.37Z"/><path class="cls-1" d="M166.22,13.48v2.68a5.75,5.75,0,0,1-1.6.19,4.45,4.45,0,0,1-1.84-.31,2,2,0,0,1-1-1h-.09a3.35,3.35,0,0,1-1.41,1,5.29,5.29,0,0,1-2,.37,5.09,5.09,0,0,1-2-.4,3.46,3.46,0,0,1-1.46-1.17,3.05,3.05,0,0,1-.54-1.81,3.1,3.1,0,0,1,1.09-2.6,7.17,7.17,0,0,1,3.36-1.18A16.72,16.72,0,0,0,160.46,9a2.09,2.09,0,0,0,.83-.37.69.69,0,0,0,.24-.55,1,1,0,0,0-.39-.83,1.92,1.92,0,0,0-2.19.09,2.22,2.22,0,0,0-.68,1.11L154.7,8a4,4,0,0,1,1.8-2.67,6.46,6.46,0,0,1,3.65-1,6.34,6.34,0,0,1,3.9,1,3.47,3.47,0,0,1,1.33,2.91v4.54a.94.94,0,0,0,.11.54.44.44,0,0,0,.37.13A.87.87,0,0,0,166.22,13.48ZM160.87,11c-.28.07-.66.15-1.13.24-1,.21-1.56.72-1.56,1.51a1.23,1.23,0,0,0,.35.91,1.26,1.26,0,0,0,.93.35,2.11,2.11,0,0,0,2.07-2.27v-1A2.32,2.32,0,0,1,160.87,11Z"/><path class="cls-1" d="M171,.51V16.16h-3.85V.51Z"/></g></g></svg>